<svg width="50" height="53" fill="none" xmlns="http://www.w3.org/2000/svg"><circle cx="25" cy="28" r="25" fill="#68B738"/><g clip-path="url(#a)"><path d="M35.203 0h-.195c-.33.187-.593.474-.75.82a8.028 8.028 0 0 0-.664 1.757.84.84 0 0 1-.263.476.837.837 0 0 1-.498.215 3.77 3.77 0 0 0-1.57.662 3.781 3.781 0 0 0-1.12 1.286 14.087 14.087 0 0 0-.952 2.062c-.73 1.897-1.29 3.856-1.98 5.768-.324.871-.339.871-1.316.871-1.168 0-1.085-.18-1.1 1.109 0 .407.123.613.555.593.133 0 .334-.068.385.108.052.175-.123.252-.226.355a4.625 4.625 0 0 1-2.227 1.258c-.977.263-1.975.47-2.926.789-2.443.82-4.7 1.964-6.46 3.902a14.435 14.435 0 0 0-2.437 4.041c-1.888 4.454-2.803 9.144-3.513 13.882a97.056 97.056 0 0 0-.75 6.7C7.102 47.759 7 48.877 7 50h17.141a1.126 1.126 0 0 0-.118-.66 2.578 2.578 0 0 0-.778-1.05 2.57 2.57 0 0 0-1.192-.532c-.36-.083-.401-.191-.18-.474a5.341 5.341 0 0 0 .818-1.598c.838-2.48 1.162-5.067 1.568-7.63a15.488 15.488 0 0 1 1.77-5.582 11.126 11.126 0 0 1 2.874-3.283c.427-.325.443-.325.515.226.051.366.061.743.087 1.114a48.166 48.166 0 0 1-.092 7.31 31.866 31.866 0 0 0-.078 5.67A38.826 38.826 0 0 0 30.503 50h6.84a2.79 2.79 0 0 0-.735-1.484 2.78 2.78 0 0 0-1.446-.805 4.62 4.62 0 0 0-1.933.103c-.309.073-.438 0-.463-.335a29.113 29.113 0 0 1 .514-8.154 91.803 91.803 0 0 0 1.574-9.371 9.163 9.163 0 0 1 1.172-3.609c.612-1.092 1.147-2.226 1.749-3.324a3.031 3.031 0 0 0 .216-2.676c-.139-.366-.273-.737-.442-1.087-.515-1.005-1.029-2-1.502-3.016-.252-.515-.196-.577.365-.593.838 0 .838 0 .854-.845v-.34c0-.356-.134-.552-.515-.515h-.781c-.355 0-.458-.15-.37-.516a3.217 3.217 0 0 1 .982-1.532 3.206 3.206 0 0 1 1.656-.751 11.291 11.291 0 0 1 3.404.221.513.513 0 0 0 .39-.033.515.515 0 0 0 .253-.297c.206-.515.432-1.03.664-1.546a.517.517 0 0 0-.052-.588c-1.646-2.093-3.43-4.046-5.863-5.299a.767.767 0 0 1-.452-.577 10.123 10.123 0 0 0-.653-2.144A1.803 1.803 0 0 0 35.203 0Z" fill="#000"/></g><defs><clipPath id="a"><path fill="#fff" transform="translate(7)" d="M0 0h36v50H0z"/></clipPath></defs></svg>