<svg width="200" height="211" fill="none" xmlns="http://www.w3.org/2000/svg"><circle cx="100" cy="111" r="100" fill="#68B738"/><g clip-path="url(#a)"><path d="M139.68 0h-.76A7.0005 7.0005 0 0 0 136 3.18a31.0395 31.0395 0 0 0-2.58 6.82 3.2567 3.2567 0 0 1-1.022 1.8462 3.2565 3.2565 0 0 1-1.938.8338 14.6749 14.6749 0 0 0-6.105 2.5689A14.6755 14.6755 0 0 0 120 20.24a54.6209 54.6209 0 0 0-3.7 8c-2.84 7.36-5.02 14.96-7.7 22.38-1.26 3.38-1.32 3.38-5.12 3.38-4.54 0-4.22-.7-4.28 4.3 0 1.58.48 2.38 2.16 2.3.52 0 1.3-.26 1.5.42.2.68-.48.98-.88 1.38a18.0004 18.0004 0 0 1-8.66 4.88c-3.8 1.02-7.68 1.82-11.38 3.06-9.5 3.18-18.28 7.62-25.12 15.14a56.0004 56.0004 0 0 0-9.48 15.68c-7.34 17.28-10.9 35.48-13.66 53.86-1.3 8.62-2.22 17.28-2.92 26-.36 4.28-.76 8.62-.76 12.98h66.66a4.361 4.361 0 0 0-.46-2.56 10.0021 10.0021 0 0 0-3.0247-4.075A10.0006 10.0006 0 0 0 88.54 185.3c-1.4-.32-1.56-.74-.7-1.84a20.692 20.692 0 0 0 3.18-6.2c3.26-9.62 4.52-19.66 6.1-29.6A60.0078 60.0078 0 0 1 104 126a43.2148 43.2148 0 0 1 11.18-12.74c1.66-1.26 1.72-1.26 2 .88.2 1.42.24 2.88.34 4.32.6 9.449.48 18.93-.36 28.36-.755 7.31-.856 14.672-.3 22A150.344 150.344 0 0 0 121.4 194H148a10.817 10.817 0 0 0-2.858-5.759 10.825 10.825 0 0 0-5.622-3.121c-2.507-.398-5.07-.262-7.52.4-1.2.28-1.7 0-1.8-1.3-.827-10.588-.154-21.24 2-31.64a355.4594 355.4594 0 0 0 6.12-36.36 35.4988 35.4988 0 0 1 4.56-14c2.38-4.24 4.46-8.64 6.8-12.9a11.7453 11.7453 0 0 0 1.634-5.0918c.146-1.8003-.126-3.61-.794-5.2882-.54-1.42-1.06-2.86-1.72-4.22-2-3.9-4-7.76-5.84-11.7-.98-2-.76-2.24 1.42-2.3 3.26 0 3.26 0 3.32-3.28v-1.32c0-1.38-.52-2.14-2-2h-3.04c-1.38 0-1.78-.58-1.44-2a12.4834 12.4834 0 0 1 3.822-5.9445 12.48 12.48 0 0 1 6.438-2.9155 43.9986 43.9986 0 0 1 13.24.86 2.0006 2.0006 0 0 0 2.5-1.28c.8-2 1.68-4 2.58-6 .204-.3548.294-.7637.258-1.1714a1.9912 1.9912 0 0 0-.458-1.1086c-6.4-8.12-13.34-15.7-22.8-20.56a2.9768 2.9768 0 0 1-1.165-.8961 2.984 2.984 0 0 1-.595-1.3439 39.1626 39.1626 0 0 0-2.54-8.32A7.0002 7.0002 0 0 0 139.68 0Z" fill="#000"/></g><defs><clipPath id="a"><path fill="#fff" transform="translate(30)" d="M0 0h140v194H0z"/></clipPath></defs></svg>