<svg width="20" height="20" fill="none" xmlns="http://www.w3.org/2000/svg"><path d="M17.9 9.4H9.4v1.2h8.5l-2.1 2.1.9.9 3.1-3.1a.7497.7497 0 0 0 0-.9l-3.1-3.1-.9.9 2.1 2ZM8.1 19.4v-6.2a.65.65 0 0 0-.6-.6H3.1a1.2198 1.2198 0 0 0 1.2 1.2h2.5v5H3.1a1.7888 1.7888 0 0 1-1.3057-.4525A1.79 1.79 0 0 1 1.2 17.1v-14a1.77 1.77 0 0 1 1.7-1.8h3.9v5H4.4a1.22 1.22 0 0 0-1.2 1.2h4.4a.65.65 0 0 0 .6-.6V.6a.86.86 0 0 0-.7-.6H3.1A3 3 0 0 0 0 2.9v13.9a2.8897 2.8897 0 0 0 2.9 3.1h4.6a.5004.5004 0 0 0 .555-.2824A.4997.4997 0 0 0 8.1 19.4Z" fill="#000"/></svg>