<svg width="268" height="200" fill="none" xmlns="http://www.w3.org/2000/svg"><circle cx="136" cy="100" r="100" fill="#68B738"/><g clip-path="url(#a)"><path d="M246.2 55.5999a30.4025 30.4025 0 0 1 9-9.2c2-1.4 3.2-1.4 4.4 1.2 1.6 3.8 3 7.8 1.8 12a4.5767 4.5767 0 0 0-.12 2.1991 4.574 4.574 0 0 0 .92 2.0009c1.2 1.6 2.2 3.2 3.2 4.6a12.5412 12.5412 0 0 1 2.56 5.9591 12.536 12.536 0 0 1-.76 6.4409 10.8647 10.8647 0 0 0-.4 6.2c.4 1.98.4 4.02 0 6a7.5024 7.5024 0 0 1-1.724 4.0238 7.493 7.493 0 0 1-3.676 2.3762A10.423 10.423 0 0 0 255 103.4a2.0988 2.0988 0 0 1-1.8 1c-2.4.4-8.4-5.0001-8.4-7.4001v-1.2c.2-7.2-.2-7.8-6.8-10.8a8.7826 8.7826 0 0 1-3.6-2.4c-1.2-1.6-2.8-1.4-4.6-.8-1.8.6-2.8 1.8-2.6 3.8.603 4.8417.804 9.7251.6 14.6001.013.556.15 1.103.4 1.6 6.2 9 8.6 19.6 11.6 29.8 2.4 7.8 6.8 12 14.8 12.6 1.28.102 2.551.303 3.8.6a8.322 8.322 0 0 1 4.383 2.156 8.3193 8.3193 0 0 1 2.417 4.244c1.4 4.2.6 5.2-3.6 5.2h-13a6.4814 6.4814 0 0 1-4.6-1.6 23.4127 23.4127 0 0 0-6.8-4 14.525 14.525 0 0 1-6.8-5.2 57.213 57.213 0 0 0-8-9c-5.6-5.8-11.6-11.4-16.8-17.4a22.7582 22.7582 0 0 1-6.4-15.2c0-1.8-.4-2.6-2.4-1.8-.599.38-1.291.587-2 .6-5.6 0-8.4 3.4-10.4 8.4-1.8 4.2-4.2 8.2-6.4 12.4a20.7857 20.7857 0 0 0-2 8.4c0 4.8 1.2 6.4 5.6 8 2.8 1 5.4 2 6.8 4.8 1.6 3.2 1.2 4-2.2 4.2h-13.6a3.7531 3.7531 0 0 1-2.254-.488 3.7634 3.7634 0 0 1-1.546-1.712l-3.6-6a12.1028 12.1028 0 0 1-1.984-5.234c-.243-1.875-.043-3.782.584-5.566.866-3.473.934-7.097.2-10.6-.504-2.44-.461-4.961.127-7.382a16.8425 16.8425 0 0 1 3.273-6.618c1.2-1.4 1.2-2-.8-2.4a100.1052 100.1052 0 0 1-23.6-8.2001.1983.1983 0 0 1-.141-.0586.1984.1984 0 0 1-.059-.1414c-6.4-2.4-7.6-2-9.4 4.6C131.8 104.8 130.2 110.4 129 116.2c-1.4 6.4.2 12.4 2.2 18.4.8 2.4 3.2 2.2 5 2.8 4 1.2 7.4 2.8 9 7 1.4 3.2 1.2 3.6-2.2 3.6-3.4 0-6.8-.2-10.4 0-3.038.055-6.003-.933-8.4-2.8-9.6-6.4-12.4-16.2-13.2-26.8-.4-6.6-4-11.8-8.2-16.8-.8-1-1.6-1.4-2.8-.6a88.6486 88.6486 0 0 1-13.4 6 53.4212 53.4212 0 0 0-24.4 17.6 21.2598 21.2598 0 0 0-4.4 10.2c-.6 3.6.4 5.2 4 6.2s5.4 3 5.8 6.8c.2 1.6-.4 2.4-2 2.4H49.4a3.3114 3.3114 0 0 1-1.4961-.481A3.308 3.308 0 0 1 46.8 148.6a17.121 17.121 0 0 1-3.8-11c-.1049-6.91.4982-13.813 1.8-20.6a12.5944 12.5944 0 0 1 2.2108-5.642A12.5982 12.5982 0 0 1 51.6 107.4c11.8-5.6 18-16.2001 23.6-27.2001 1.2-2.2.2-2.6-1.8-2.4a32.9396 32.9396 0 0 0-15.4 6.4 141.2462 141.2462 0 0 0-16.6 14.2A33.3425 33.3425 0 0 1 20.8 108.2C6.2 109-.6 100.8 0 87.5999a19.38 19.38 0 0 1 4.8-12.2 8.5003 8.5003 0 0 1 9-3c3 .8 3.8 2.4 2.6 5.4-.6 1.2-1.4 2.2-2 3.4a15.0014 15.0014 0 0 0-2 4c-2.2 6 .8 10.2 7 10.8 6.6.6 12-2.2 17-6.2a89.8776 89.8776 0 0 0 16-16.6 41.5809 41.5809 0 0 1 28.8-16.2c4.6-.6 8.6-2.6 13-3.8a83.0193 83.0193 0 0 1 25.4-3.6 26.0013 26.0013 0 0 0 11.6-2.2c9.8-4 20-4 30.2-2 8 1.6 16 3.6 23.8 5.6 4.642.8649 9.415.7286 14-.4a135.5805 135.5805 0 0 1 26.8-4 36.3206 36.3206 0 0 1 17.2 3.4c4 1.8 4 1.8 3 5.6Z" fill="#000"/></g><defs><clipPath id="a"><path fill="#fff" transform="translate(0 44)" d="M0 0h268v112H0z"/></clipPath></defs></svg>