<svg width="67" height="50" fill="none" xmlns="http://www.w3.org/2000/svg"><circle cx="34.5" cy="25" r="25" fill="#68B738"/><g clip-path="url(#a)"><path d="M61.55 13.9a7.5983 7.5983 0 0 1 2.25-2.3c.5-.35.8-.35 1.1.3.4.95.75 1.95.45 3a1.1452 1.1452 0 0 0 .2 1.05c.3.4.55.8.8 1.15a3.1356 3.1356 0 0 1 .45 3.1 2.7149 2.7149 0 0 0-.1 1.55 3.7912 3.7912 0 0 1 0 1.5 1.8753 1.8753 0 0 1-1.35 1.6 2.6046 2.6046 0 0 0-1.6 1 .525.525 0 0 1-.45.25c-.6.1-2.1-1.25-2.1-1.85v-.3c.05-1.8-.05-1.95-1.7-2.7a2.1948 2.1948 0 0 1-.9-.6c-.3-.4-.7-.35-1.15-.2-.45.15-.7.45-.65.95a22.0734 22.0734 0 0 1 .15 3.65.94.94 0 0 0 .1.4c1.55 2.25 2.15 4.9 2.9 7.45.6 1.95 1.7 3 3.7 3.15.32.0255.6376.0757.95.15a2.0799 2.0799 0 0 1 1.7 1.6c.35 1.05.15 1.3-.9 1.3h-3.25a1.6198 1.6198 0 0 1-1.15-.4 5.8553 5.8553 0 0 0-1.7-1 3.6299 3.6299 0 0 1-1.7-1.3 14.3036 14.3036 0 0 0-2-2.25c-1.4-1.45-2.9-2.85-4.2-4.35a5.6898 5.6898 0 0 1-1.6-3.8c0-.45-.1-.65-.6-.45a.9646.9646 0 0 1-.5.15c-1.4 0-2.1.85-2.6 2.1-.45 1.05-1.05 2.05-1.6 3.1A5.1944 5.1944 0 0 0 44 33c0 1.2.3 1.6 1.4 2 .7.25 1.35.5 1.7 1.2.4.8.3 1-.55 1.05h-3.4a.9406.9406 0 0 1-.95-.55l-.9-1.5a3.0239 3.0239 0 0 1-.4959-1.3084A3.0238 3.0238 0 0 1 40.95 32.5a5.9296 5.9296 0 0 0 .05-2.65 4.2089 4.2089 0 0 1 .85-3.5c.3-.35.3-.5-.2-.6a25.0277 25.0277 0 0 1-5.9-2.05.05.05 0 0 1-.05-.05c-1.6-.6-1.9-.5-2.35 1.15-.4 1.4-.8 2.8-1.1 4.25-.35 1.6.05 3.1.55 4.6.2.6.8.55 1.25.7 1 .3 1.85.7 2.25 1.75.35.8.3.9-.55.9-.85 0-1.7-.05-2.6 0a3.3203 3.3203 0 0 1-2.1-.7c-2.4-1.6-3.1-4.05-3.3-6.7-.1-1.65-1-2.95-2.05-4.2-.2-.25-.4-.35-.7-.15a22.1605 22.1605 0 0 1-3.35 1.5 13.3547 13.3547 0 0 0-6.1 4.4 5.3147 5.3147 0 0 0-1.1 2.55c-.15.9.1 1.3 1 1.55s1.35.75 1.45 1.7c.05.4-.1.6-.5.6h-4.05a.8257.8257 0 0 1-.65-.4 4.2797 4.2797 0 0 1-.95-2.75 25.2919 25.2919 0 0 1 .45-5.15 3.1487 3.1487 0 0 1 .5527-1.4106A3.1487 3.1487 0 0 1 12.9 26.85c2.95-1.4 4.5-4.05 5.9-6.8.3-.55.05-.65-.45-.6a8.2333 8.2333 0 0 0-3.85 1.6 35.3071 35.3071 0 0 0-4.15 3.55 8.3353 8.3353 0 0 1-5.15 2.45c-3.65.2-5.35-1.85-5.2-5.15a4.845 4.845 0 0 1 1.2-3.05 2.1251 2.1251 0 0 1 2.25-.75c.75.2.95.6.65 1.35-.15.3-.35.55-.5.85a3.7495 3.7495 0 0 0-.5 1c-.55 1.5.2 2.55 1.75 2.7 1.65.15 3-.55 4.25-1.55a22.4745 22.4745 0 0 0 4-4.15 10.3947 10.3947 0 0 1 7.2-4.05c1.15-.15 2.15-.65 3.25-.95a20.7554 20.7554 0 0 1 6.35-.9 6.4998 6.4998 0 0 0 2.9-.55c2.45-1 5-1 7.55-.5 2 .4 4 .9 5.95 1.4a8.2914 8.2914 0 0 0 3.5-.1 33.8854 33.8854 0 0 1 6.7-1 9.0788 9.0788 0 0 1 4.3.85c1 .45 1 .45.75 1.4Z" fill="#000"/></g><defs><clipPath id="a"><path fill="#fff" transform="translate(0 11)" d="M0 0h67v28H0z"/></clipPath></defs></svg>