<svg width="134" height="100" fill="none" xmlns="http://www.w3.org/2000/svg"><circle cx="69" cy="50" r="50" fill="#68B738"/><g clip-path="url(#a)"><path d="M123.1 25.8a15.1955 15.1955 0 0 1 4.5-4.6c1-.7 1.6-.7 2.2.6.8 1.9 1.5 3.9.9 6-.109.3562-.13.7336-.06 1.0995.07.366.227.7094.46 1.0005.6.8 1.1 1.6 1.6 2.3a6.2757 6.2757 0 0 1 1.28 2.9795 6.268 6.268 0 0 1-.38 3.2205 5.428 5.428 0 0 0-.2 3.1c.2.99.2 2.01 0 3a3.7512 3.7512 0 0 1-2.7 3.2 5.2097 5.2097 0 0 0-3.2 2 1.0531 1.0531 0 0 1-.385.3679 1.0465 1.0465 0 0 1-.515.1321c-1.2.2-4.2-2.5-4.2-3.7v-.6c.1-3.6-.1-3.9-3.4-5.4a4.3848 4.3848 0 0 1-1.8-1.2c-.6-.8-1.4-.7-2.3-.4-.9.3-1.4.9-1.3 1.9.301 2.4209.402 4.8626.3 7.3.007.2782.075.5514.2.8 3.1 4.5 4.3 9.8 5.8 14.9 1.2 3.9 3.4 6 7.4 6.3.64.0511 1.275.1514 1.9.3.822.132 1.585.5076 2.191 1.078A4.1648 4.1648 0 0 1 132.6 73.6c.7 2.1.3 2.6-1.8 2.6h-6.5a3.2383 3.2383 0 0 1-2.3-.8 11.713 11.713 0 0 0-3.4-2 7.2575 7.2575 0 0 1-3.4-2.6 28.586 28.586 0 0 0-4-4.5c-2.8-2.9-5.8-5.7-8.4-8.7a11.3814 11.3814 0 0 1-3.2001-7.6c0-.9-.2-1.3-1.2-.9a1.9292 1.9292 0 0 1-1 .3c-2.8 0-4.2 1.7-5.2 4.2-.9 2.1-2.1 4.1-3.2 6.2a10.3908 10.3908 0 0 0-1 4.2c0 2.4.6 3.2 2.8 4 1.4.5 2.7 1 3.4 2.4.8 1.6.6 2-1.1 2.1h-6.8a1.8806 1.8806 0 0 1-1.9-1.1l-1.8-3a6.0503 6.0503 0 0 1-.7-5.4 11.8592 11.8592 0 0 0 .1-5.3 8.4208 8.4208 0 0 1 1.7-7c.6-.7.6-1-.4-1.2a50.0586 50.0586 0 0 1-11.8-4.1.1.1 0 0 1-.1-.1c-3.2-1.2-3.8-1-4.7 2.3-.8 2.8-1.6 5.6-2.2 8.5-.7 3.2.1 6.2 1.1 9.2.4 1.2 1.6 1.1 2.5 1.4 2 .6 3.7 1.4 4.5 3.5.7 1.6.6 1.8-1.1 1.8-1.7 0-3.4-.1-5.2 0a6.6402 6.6402 0 0 1-4.2-1.4c-4.8-3.2-6.2-8.1-6.6-13.4-.2-3.3-2-5.9-4.1-8.4-.4-.5-.8-.7-1.4-.3a44.3122 44.3122 0 0 1-6.7 3 26.7106 26.7106 0 0 0-12.2 8.8 10.6308 10.6308 0 0 0-2.2 5.1c-.3 1.8.2 2.6 2 3.1s2.7 1.5 2.9 3.4c.1.8-.2 1.2-1 1.2h-8.1a1.6502 1.6502 0 0 1-1.3-.8 8.5605 8.5605 0 0 1-1.9-5.5 50.5986 50.5986 0 0 1 .9-10.3 6.3006 6.3006 0 0 1 3.4-4.8c5.9-2.8 9-8.1 11.8-13.6.6-1.1.1-1.3-.9-1.2a16.47 16.47 0 0 0-7.7 3.2 70.6143 70.6143 0 0 0-8.3 7.1 16.6697 16.6697 0 0 1-10.3 4.9c-7.3.4-10.7-3.7-10.4-10.3a9.69 9.69 0 0 1 2.4-6.1 4.2501 4.2501 0 0 1 4.5-1.5c1.5.4 1.9 1.2 1.3 2.7-.3.6-.7 1.1-1 1.7a7.5005 7.5005 0 0 0-1 2c-1.1 3 .4 5.1 3.5 5.4 3.3.3 6-1.1 8.5-3.1a44.9435 44.9435 0 0 0 8-8.3 20.791 20.791 0 0 1 14.4-8.1c2.3-.3 4.3-1.3 6.5-1.9a41.5112 41.5112 0 0 1 12.7-1.8 12.9994 12.9994 0 0 0 5.8-1.1c4.9-2 10-2 15.1-1 4 .8 8 1.8 11.9 2.8a16.5794 16.5794 0 0 0 7-.2A67.7942 67.7942 0 0 1 113 21.3a18.1615 18.1615 0 0 1 8.6 1.7c2 .9 2 .9 1.5 2.8Z" fill="#000"/></g><defs><clipPath id="a"><path fill="#fff" transform="translate(0 20)" d="M0 0h134v56H0z"/></clipPath></defs></svg>